<?xml version="1.0" encoding="UTF-8" standalone="no"?>
<!DOCTYPE svg PUBLIC "-//W3C//DTD SVG 1.1//EN"
 "http://www.w3.org/Graphics/SVG/1.1/DTD/svg11.dtd">
<!-- Generated by graphviz version 2.43.0 (0)
 -->
<!-- Title: dependency&#45;cruiser output Pages: 1 -->
<svg width="801pt" height="664pt"
 viewBox="0.00 0.00 801.00 664.00" xmlns="http://www.w3.org/2000/svg" xmlns:xlink="http://www.w3.org/1999/xlink">
<g id="graph0" class="graph" transform="scale(1 1) rotate(0) translate(4 660)">
<title>dependency&#45;cruiser output</title>
<polygon fill="white" stroke="transparent" points="-4,4 -4,-660 797,-660 797,4 -4,4"/>
<g id="clust1" class="cluster">
<title>cluster_src</title>
<path fill="#ffffff" stroke="black" stroke-width="2" d="M20,-8C20,-8 773,-8 773,-8 779,-8 785,-14 785,-20 785,-20 785,-636 785,-636 785,-642 779,-648 773,-648 773,-648 20,-648 20,-648 14,-648 8,-642 8,-636 8,-636 8,-20 8,-20 8,-14 14,-8 20,-8"/>
<text text-anchor="middle" x="396.5" y="-636.8" font-family="Helvetica,sans-Serif" font-weight="bold" font-size="9.00">src</text>
</g>
<g id="clust2" class="cluster">
<title>cluster_src/components</title>
<path fill="#ffffff" stroke="black" stroke-width="2" d="M173,-200C173,-200 528,-200 528,-200 534,-200 540,-206 540,-212 540,-212 540,-570 540,-570 540,-576 534,-582 528,-582 528,-582 173,-582 173,-582 167,-582 161,-576 161,-570 161,-570 161,-212 161,-212 161,-206 167,-200 173,-200"/>
<text text-anchor="middle" x="350.5" y="-570.8" font-family="Helvetica,sans-Serif" font-weight="bold" font-size="9.00">components</text>
</g>
<g id="clust3" class="cluster">
<title>cluster_src/components/layout</title>
<path fill="#ffffff" stroke="black" stroke-width="2" d="M181,-448C181,-448 238,-448 238,-448 244,-448 250,-454 250,-460 250,-460 250,-488 250,-488 250,-494 244,-500 238,-500 238,-500 181,-500 181,-500 175,-500 169,-494 169,-488 169,-488 169,-460 169,-460 169,-454 175,-448 181,-448"/>
<text text-anchor="middle" x="209.5" y="-488.8" font-family="Helvetica,sans-Serif" font-weight="bold" font-size="9.00">layout</text>
</g>
<g id="clust4" class="cluster">
<title>cluster_src/components/ui</title>
<path fill="#ffffff" stroke="black" stroke-width="2" d="M420,-208C420,-208 520,-208 520,-208 526,-208 532,-214 532,-220 532,-220 532,-518 532,-518 532,-524 526,-530 520,-530 520,-530 420,-530 420,-530 414,-530 408,-524 408,-518 408,-518 408,-220 408,-220 408,-214 414,-208 420,-208"/>
<text text-anchor="middle" x="470" y="-518.8" font-family="Helvetica,sans-Serif" font-weight="bold" font-size="9.00">ui</text>
</g>
<g id="clust5" class="cluster">
<title>cluster_src/features</title>
<path fill="#ffffff" stroke="black" stroke-width="2" d="M270,-16C270,-16 749.5,-16 749.5,-16 755.5,-16 761.5,-22 761.5,-28 761.5,-28 761.5,-180 761.5,-180 761.5,-186 755.5,-192 749.5,-192 749.5,-192 270,-192 270,-192 264,-192 258,-186 258,-180 258,-180 258,-28 258,-28 258,-22 264,-16 270,-16"/>
<text text-anchor="middle" x="509.75" y="-180.8" font-family="Helvetica,sans-Serif" font-weight="bold" font-size="9.00">features</text>
</g>
<g id="clust6" class="cluster">
<title>cluster_src/features/visualization</title>
<path fill="#ffffff" stroke="black" stroke-width="2" d="M278,-24C278,-24 741.5,-24 741.5,-24 747.5,-24 753.5,-30 753.5,-36 753.5,-36 753.5,-154 753.5,-154 753.5,-160 747.5,-166 741.5,-166 741.5,-166 278,-166 278,-166 272,-166 266,-160 266,-154 266,-154 266,-36 266,-36 266,-30 272,-24 278,-24"/>
<text text-anchor="middle" x="509.75" y="-154.8" font-family="Helvetica,sans-Serif" font-weight="bold" font-size="9.00">visualization</text>
</g>
<g id="clust7" class="cluster">
<title>cluster_src/features/visualization/components</title>
<path fill="#ffffff" stroke="black" stroke-width="2" d="M286,-32C286,-32 503,-32 503,-32 509,-32 515,-38 515,-44 515,-44 515,-102 515,-102 515,-108 509,-114 503,-114 503,-114 286,-114 286,-114 280,-114 274,-108 274,-102 274,-102 274,-44 274,-44 274,-38 280,-32 286,-32"/>
<text text-anchor="middle" x="394.5" y="-102.8" font-family="Helvetica,sans-Serif" font-weight="bold" font-size="9.00">components</text>
</g>
<g id="clust8" class="cluster">
<title>cluster_src/features/visualization/logic</title>
<path fill="#ffffff" stroke="black" stroke-width="2" d="M560,-58C560,-58 733.5,-58 733.5,-58 739.5,-58 745.5,-64 745.5,-70 745.5,-70 745.5,-128 745.5,-128 745.5,-134 739.5,-140 733.5,-140 733.5,-140 560,-140 560,-140 554,-140 548,-134 548,-128 548,-128 548,-70 548,-70 548,-64 554,-58 560,-58"/>
<text text-anchor="middle" x="646.75" y="-128.8" font-family="Helvetica,sans-Serif" font-weight="bold" font-size="9.00">logic</text>
</g>
<g id="clust9" class="cluster">
<title>cluster_src/lib</title>
<path fill="#ffffff" stroke="black" stroke-width="2" d="M573,-328C573,-328 619,-328 619,-328 625,-328 631,-334 631,-340 631,-340 631,-368 631,-368 631,-374 625,-380 619,-380 619,-380 573,-380 573,-380 567,-380 561,-374 561,-368 561,-368 561,-340 561,-340 561,-334 567,-328 573,-328"/>
<text text-anchor="middle" x="596" y="-368.8" font-family="Helvetica,sans-Serif" font-weight="bold" font-size="9.00">lib</text>
</g>
<g id="clust10" class="cluster">
<title>cluster_src/schema</title>
<path fill="#ffffff" stroke="black" stroke-width="2" d="M656,-200C656,-200 765,-200 765,-200 771,-200 777,-206 777,-212 777,-212 777,-240 777,-240 777,-246 771,-252 765,-252 765,-252 656,-252 656,-252 650,-252 644,-246 644,-240 644,-240 644,-212 644,-212 644,-206 650,-200 656,-200"/>
<text text-anchor="middle" x="710.5" y="-240.8" font-family="Helvetica,sans-Serif" font-weight="bold" font-size="9.00">schema</text>
</g>
<g id="clust11" class="cluster">
<title>cluster_src/test</title>
<path fill="#ffffff" stroke="black" stroke-width="2" d="M28,-570C28,-570 74,-570 74,-570 80,-570 86,-576 86,-582 86,-582 86,-610 86,-610 86,-616 80,-622 74,-622 74,-622 28,-622 28,-622 22,-622 16,-616 16,-610 16,-610 16,-582 16,-582 16,-576 22,-570 28,-570"/>
<text text-anchor="middle" x="51" y="-610.8" font-family="Helvetica,sans-Serif" font-weight="bold" font-size="9.00">test</text>
</g>
<!-- src/App.tsx -->
<g id="node1" class="node">
<title>src/App.tsx</title>
<g id="a_node1"><a xlink:href="src/App.tsx" xlink:title="App.tsx">
<path fill="#bbfeff" stroke="black" d="M144.5,-321C144.5,-321 102.5,-321 102.5,-321 99.5,-321 96.5,-318 96.5,-315 96.5,-315 96.5,-309 96.5,-309 96.5,-306 99.5,-303 102.5,-303 102.5,-303 144.5,-303 144.5,-303 147.5,-303 150.5,-306 150.5,-309 150.5,-309 150.5,-315 150.5,-315 150.5,-318 147.5,-321 144.5,-321"/>
<text text-anchor="start" x="106" y="-309.8" font-family="Helvetica,sans-Serif" font-size="9.00">App.tsx</text>
</a>
</g>
</g>
<!-- src/components/layout/Header.tsx -->
<g id="node2" class="node">
<title>src/components/layout/Header.tsx</title>
<g id="a_node2"><a xlink:href="src/components/layout/Header.tsx" xlink:title="Header.tsx">
<path fill="#bbfeff" stroke="black" d="M236,-474C236,-474 183,-474 183,-474 180,-474 177,-471 177,-468 177,-468 177,-462 177,-462 177,-459 180,-456 183,-456 183,-456 236,-456 236,-456 239,-456 242,-459 242,-462 242,-462 242,-468 242,-468 242,-471 239,-474 236,-474"/>
<text text-anchor="start" x="185" y="-462.8" font-family="Helvetica,sans-Serif" font-size="9.00">Header.tsx</text>
</a>
</g>
</g>
<!-- src/App.tsx&#45;&gt;src/components/layout/Header.tsx -->
<g id="edge1" class="edge">
<title>src/App.tsx&#45;&gt;src/components/layout/Header.tsx</title>
<path fill="none" stroke="#000000" stroke-width="2" stroke-opacity="0.200000" d="M124,-321C123.13,-345.64 124.28,-414.83 161,-452 163.91,-454.94 167.41,-457.24 171.18,-459.02"/>
<polygon fill="#000000" fill-opacity="0.200000" stroke="#000000" stroke-width="2" stroke-opacity="0.200000" points="170.51,-461.02 176.86,-461.29 172.07,-457.12 170.51,-461.02"/>
</g>
<!-- src/features/visualization/components/DependencyGraph.tsx -->
<g id="node3" class="node">
<title>src/features/visualization/components/DependencyGraph.tsx</title>
<g id="a_node3"><a xlink:href="src/features/visualization/components/DependencyGraph.tsx" xlink:title="DependencyGraph.tsx">
<path fill="#bbfeff" stroke="black" d="M394,-58C394,-58 288,-58 288,-58 285,-58 282,-55 282,-52 282,-52 282,-46 282,-46 282,-43 285,-40 288,-40 288,-40 394,-40 394,-40 397,-40 400,-43 400,-46 400,-46 400,-52 400,-52 400,-55 397,-58 394,-58"/>
<text text-anchor="start" x="290" y="-46.8" font-family="Helvetica,sans-Serif" font-size="9.00">DependencyGraph.tsx</text>
</a>
</g>
</g>
<!-- src/App.tsx&#45;&gt;src/features/visualization/components/DependencyGraph.tsx -->
<g id="edge2" class="edge">
<title>src/App.tsx&#45;&gt;src/features/visualization/components/DependencyGraph.tsx</title>
<path fill="none" stroke="#000000" stroke-width="2" stroke-opacity="0.200000" d="M125.61,-302.71C128.59,-280.18 138.16,-221.29 161,-178 192.04,-119.16 200.38,-97.25 258,-64 263.57,-60.79 269.67,-58.24 275.95,-56.22"/>
<polygon fill="#000000" fill-opacity="0.200000" stroke="#000000" stroke-width="2" stroke-opacity="0.200000" points="276.6,-58.22 281.77,-54.51 275.42,-54.19 276.6,-58.22"/>
</g>
<!-- src/features/visualization/components/GraphOverlay.tsx -->
<g id="node4" class="node">
<title>src/features/visualization/components/GraphOverlay.tsx</title>
<g id="a_node4"><a xlink:href="src/features/visualization/components/GraphOverlay.tsx" xlink:title="GraphOverlay.tsx">
<path fill="#bbfeff" stroke="black" d="M381.5,-88C381.5,-88 300.5,-88 300.5,-88 297.5,-88 294.5,-85 294.5,-82 294.5,-82 294.5,-76 294.5,-76 294.5,-73 297.5,-70 300.5,-70 300.5,-70 381.5,-70 381.5,-70 384.5,-70 387.5,-73 387.5,-76 387.5,-76 387.5,-82 387.5,-82 387.5,-85 384.5,-88 381.5,-88"/>
<text text-anchor="start" x="302.5" y="-76.8" font-family="Helvetica,sans-Serif" font-size="9.00">GraphOverlay.tsx</text>
</a>
</g>
</g>
<!-- src/App.tsx&#45;&gt;src/features/visualization/components/GraphOverlay.tsx -->
<g id="edge3" class="edge">
<title>src/App.tsx&#45;&gt;src/features/visualization/components/GraphOverlay.tsx</title>
<path fill="none" stroke="#000000" stroke-width="2" stroke-opacity="0.200000" d="M132.95,-302.87C166.14,-266.98 287.74,-135.5 327.4,-92.62"/>
<polygon fill="#000000" fill-opacity="0.200000" stroke="#000000" stroke-width="2" stroke-opacity="0.200000" points="329.08,-93.9 331.61,-88.07 325.99,-91.05 329.08,-93.9"/>
</g>
<!-- src/vite&#45;env.d.ts -->
<g id="node5" class="node">
<title>src/vite&#45;env.d.ts</title>
<g id="a_node5"><a xlink:href="src/vite-env.d.ts" xlink:title="vite&#45;env.d.ts">
<path fill="#ddfeff" stroke="black" d="M371,-608C371,-608 311,-608 311,-608 308,-608 305,-605 305,-602 305,-602 305,-596 305,-596 305,-593 308,-590 311,-590 311,-590 371,-590 371,-590 374,-590 377,-593 377,-596 377,-596 377,-602 377,-602 377,-605 374,-608 371,-608"/>
<text text-anchor="start" x="313" y="-596.8" font-family="Helvetica,sans-Serif" font-size="9.00">vite&#45;env.d.ts</text>
</a>
</g>
</g>
<!-- src/components/layout/Header.tsx&#45;&gt;src/vite&#45;env.d.ts -->
<g id="edge4" class="edge">
<title>src/components/layout/Header.tsx&#45;&gt;src/vite&#45;env.d.ts</title>
<path fill="none" stroke="#000000" stroke-width="2" stroke-opacity="0.200000" d="M242.13,-471.39C245.14,-473.11 247.87,-475.27 250,-478 264.69,-496.78 241.95,-567.36 258,-585 268.12,-596.12 283.57,-600.51 298.35,-601.81"/>
<polygon fill="#000000" fill-opacity="0.200000" stroke="#000000" stroke-width="2" stroke-opacity="0.200000" points="298.5,-603.92 304.62,-602.19 298.76,-599.73 298.5,-603.92"/>
</g>
<!-- src/components/mode&#45;toggle.tsx -->
<g id="node6" class="node">
<title>src/components/mode&#45;toggle.tsx</title>
<g id="a_node6"><a xlink:href="src/components/mode-toggle.tsx" xlink:title="mode&#45;toggle.tsx">
<path fill="#bbfeff" stroke="black" d="M380,-500C380,-500 302,-500 302,-500 299,-500 296,-497 296,-494 296,-494 296,-488 296,-488 296,-485 299,-482 302,-482 302,-482 380,-482 380,-482 383,-482 386,-485 386,-488 386,-488 386,-494 386,-494 386,-497 383,-500 380,-500"/>
<text text-anchor="start" x="304" y="-488.8" font-family="Helvetica,sans-Serif" font-size="9.00">mode&#45;toggle.tsx</text>
</a>
</g>
</g>
<!-- src/components/layout/Header.tsx&#45;&gt;src/components/mode&#45;toggle.tsx -->
<g id="edge5" class="edge">
<title>src/components/layout/Header.tsx&#45;&gt;src/components/mode&#45;toggle.tsx</title>
<path fill="none" stroke="#000000" stroke-width="2" stroke-opacity="0.200000" d="M242.18,-471.36C256.46,-474.23 273.67,-477.68 289.65,-480.89"/>
<polygon fill="#000000" fill-opacity="0.200000" stroke="#000000" stroke-width="2" stroke-opacity="0.200000" points="289.64,-483.03 295.94,-482.15 290.47,-478.91 289.64,-483.03"/>
</g>
<!-- src/components/ui/button.tsx -->
<g id="node7" class="node">
<title>src/components/ui/button.tsx</title>
<g id="a_node7"><a xlink:href="src/components/ui/button.tsx" xlink:title="button.tsx">
<path fill="#bbfeff" stroke="black" d="M496,-474C496,-474 444,-474 444,-474 441,-474 438,-471 438,-468 438,-468 438,-462 438,-462 438,-459 441,-456 444,-456 444,-456 496,-456 496,-456 499,-456 502,-459 502,-462 502,-462 502,-468 502,-468 502,-471 499,-474 496,-474"/>
<text text-anchor="start" x="446" y="-462.8" font-family="Helvetica,sans-Serif" font-size="9.00">button.tsx</text>
</a>
</g>
</g>
<!-- src/components/layout/Header.tsx&#45;&gt;src/components/ui/button.tsx -->
<g id="edge6" class="edge">
<title>src/components/layout/Header.tsx&#45;&gt;src/components/ui/button.tsx</title>
<path fill="none" stroke="#000000" stroke-width="2" stroke-opacity="0.200000" d="M242.2,-465C290.13,-465 380.86,-465 431.84,-465"/>
<polygon fill="#000000" fill-opacity="0.200000" stroke="#000000" stroke-width="2" stroke-opacity="0.200000" points="431.85,-467.1 437.85,-465 431.85,-462.9 431.85,-467.1"/>
</g>
<!-- src/components/ui/sheet.tsx -->
<g id="node8" class="node">
<title>src/components/ui/sheet.tsx</title>
<g id="a_node8"><a xlink:href="src/components/ui/sheet.tsx" xlink:title="sheet.tsx">
<path fill="#bbfeff" stroke="black" d="M493,-444C493,-444 447,-444 447,-444 444,-444 441,-441 441,-438 441,-438 441,-432 441,-432 441,-429 444,-426 447,-426 447,-426 493,-426 493,-426 496,-426 499,-429 499,-432 499,-432 499,-438 499,-438 499,-441 496,-444 493,-444"/>
<text text-anchor="start" x="449" y="-432.8" font-family="Helvetica,sans-Serif" font-size="9.00">sheet.tsx</text>
</a>
</g>
</g>
<!-- src/components/layout/Header.tsx&#45;&gt;src/components/ui/sheet.tsx -->
<g id="edge7" class="edge">
<title>src/components/layout/Header.tsx&#45;&gt;src/components/ui/sheet.tsx</title>
<path fill="none" stroke="#000000" stroke-width="2" stroke-opacity="0.200000" d="M242.2,-461.32C291.07,-455.65 384.43,-444.82 434.78,-438.97"/>
<polygon fill="#000000" fill-opacity="0.200000" stroke="#000000" stroke-width="2" stroke-opacity="0.200000" points="435.28,-441.03 441,-438.25 434.8,-436.86 435.28,-441.03"/>
</g>
<!-- src/features/visualization/components/AppNode.tsx -->
<g id="node19" class="node">
<title>src/features/visualization/components/AppNode.tsx</title>
<g id="a_node19"><a xlink:href="src/features/visualization/components/AppNode.tsx" xlink:title="AppNode.tsx">
<path fill="#bbfeff" stroke="black" d="M501,-58C501,-58 439,-58 439,-58 436,-58 433,-55 433,-52 433,-52 433,-46 433,-46 433,-43 436,-40 439,-40 439,-40 501,-40 501,-40 504,-40 507,-43 507,-46 507,-46 507,-52 507,-52 507,-55 504,-58 501,-58"/>
<text text-anchor="start" x="441" y="-46.8" font-family="Helvetica,sans-Serif" font-size="9.00">AppNode.tsx</text>
</a>
</g>
</g>
<!-- src/features/visualization/components/DependencyGraph.tsx&#45;&gt;src/features/visualization/components/AppNode.tsx -->
<g id="edge22" class="edge">
<title>src/features/visualization/components/DependencyGraph.tsx&#45;&gt;src/features/visualization/components/AppNode.tsx</title>
<path fill="none" stroke="#000000" stroke-width="2" stroke-opacity="0.200000" d="M400.3,-49C409.13,-49 418.1,-49 426.51,-49"/>
<polygon fill="#000000" fill-opacity="0.200000" stroke="#000000" stroke-width="2" stroke-opacity="0.200000" points="426.83,-51.1 432.83,-49 426.83,-46.9 426.83,-51.1"/>
</g>
<!-- src/features/visualization/store.ts -->
<g id="node20" class="node">
<title>src/features/visualization/store.ts</title>
<g id="a_node20"><a xlink:href="src/features/visualization/store.ts" xlink:title="store.ts">
<path fill="#ddfeff" stroke="black" d="M491,-140C491,-140 449,-140 449,-140 446,-140 443,-137 443,-134 443,-134 443,-128 443,-128 443,-125 446,-122 449,-122 449,-122 491,-122 491,-122 494,-122 497,-125 497,-128 497,-128 497,-134 497,-134 497,-137 494,-140 491,-140"/>
<text text-anchor="start" x="453" y="-128.8" font-family="Helvetica,sans-Serif" font-size="9.00">store.ts</text>
</a>
</g>
</g>
<!-- src/features/visualization/components/DependencyGraph.tsx&#45;&gt;src/features/visualization/store.ts -->
<g id="edge21" class="edge">
<title>src/features/visualization/components/DependencyGraph.tsx&#45;&gt;src/features/visualization/store.ts</title>
<path fill="none" stroke="#000000" stroke-width="2" stroke-opacity="0.200000" d="M392.91,-58.01C395.51,-59.7 397.91,-61.68 400,-64 415.95,-81.69 391.81,-99.53 408,-117 415.35,-124.93 426.2,-128.81 436.71,-130.59"/>
<polygon fill="#000000" fill-opacity="0.200000" stroke="#000000" stroke-width="2" stroke-opacity="0.200000" points="436.61,-132.69 442.84,-131.41 437.17,-128.53 436.61,-132.69"/>
</g>
<!-- src/schema/dependency&#45;cruiser.ts -->
<g id="node21" class="node">
<title>src/schema/dependency&#45;cruiser.ts</title>
<g id="a_node21"><a xlink:href="src/schema/dependency-cruiser.ts" xlink:title="dependency&#45;cruiser.ts">
<path fill="#ddfeff" stroke="black" d="M763,-226C763,-226 658,-226 658,-226 655,-226 652,-223 652,-220 652,-220 652,-214 652,-214 652,-211 655,-208 658,-208 658,-208 763,-208 763,-208 766,-208 769,-211 769,-214 769,-214 769,-220 769,-220 769,-223 766,-226 763,-226"/>
<text text-anchor="start" x="660" y="-214.8" font-family="Helvetica,sans-Serif" font-size="9.00">dependency&#45;cruiser.ts</text>
</a>
</g>
</g>
<!-- src/features/visualization/components/DependencyGraph.tsx&#45;&gt;src/schema/dependency&#45;cruiser.ts -->
<g id="edge23" class="edge">
<title>src/features/visualization/components/DependencyGraph.tsx&#45;&gt;src/schema/dependency&#45;cruiser.ts</title>
<path fill="none" stroke="#000000" stroke-width="2" stroke-opacity="0.200000" d="M393.37,-58.01C395.82,-59.71 398.06,-61.69 400,-64 414.88,-81.77 391.6,-151.62 408,-168 418.41,-178.39 525.46,-175.79 540,-178 585.39,-184.9 636.65,-197.36 670.8,-206.34"/>
<polygon fill="#000000" fill-opacity="0.200000" stroke="#000000" stroke-width="2" stroke-opacity="0.200000" points="670.63,-208.47 676.97,-207.98 671.71,-204.41 670.63,-208.47"/>
</g>
<!-- src/features/visualization/components/GraphOverlay.tsx&#45;&gt;src/components/ui/button.tsx -->
<g id="edge26" class="edge">
<title>src/features/visualization/components/GraphOverlay.tsx&#45;&gt;src/components/ui/button.tsx</title>
<path fill="none" stroke="#000000" stroke-width="2" stroke-opacity="0.200000" d="M342.31,-88C344.28,-139.38 356.56,-395.1 408,-450 414.3,-456.72 423.09,-460.64 432.03,-462.88"/>
<polygon fill="#000000" fill-opacity="0.200000" stroke="#000000" stroke-width="2" stroke-opacity="0.200000" points="431.6,-464.93 437.91,-464.11 432.47,-460.82 431.6,-464.93"/>
</g>
<!-- src/lib/utils.ts -->
<g id="node12" class="node">
<title>src/lib/utils.ts</title>
<g id="a_node12"><a xlink:href="src/lib/utils.ts" xlink:title="utils.ts">
<path fill="#ddfeff" stroke="black" d="M617,-354C617,-354 575,-354 575,-354 572,-354 569,-351 569,-348 569,-348 569,-342 569,-342 569,-339 572,-336 575,-336 575,-336 617,-336 617,-336 620,-336 623,-339 623,-342 623,-342 623,-348 623,-348 623,-351 620,-354 617,-354"/>
<text text-anchor="start" x="580.5" y="-342.8" font-family="Helvetica,sans-Serif" font-size="9.00">utils.ts</text>
</a>
</g>
</g>
<!-- src/features/visualization/components/GraphOverlay.tsx&#45;&gt;src/lib/utils.ts -->
<g id="edge31" class="edge">
<title>src/features/visualization/components/GraphOverlay.tsx&#45;&gt;src/lib/utils.ts</title>
<path fill="none" stroke="#000000" stroke-width="2" stroke-opacity="0.200000" d="M345.33,-88.02C353.05,-107.62 374.16,-154.17 408,-177 457.71,-210.54 494.24,-166.24 540,-205 578.37,-237.5 590.14,-300.32 593.61,-329.46"/>
<polygon fill="#000000" fill-opacity="0.200000" stroke="#000000" stroke-width="2" stroke-opacity="0.200000" points="591.56,-330.04 594.3,-335.78 595.74,-329.59 591.56,-330.04"/>
</g>
<!-- src/components/ui/card.tsx -->
<g id="node13" class="node">
<title>src/components/ui/card.tsx</title>
<g id="a_node13"><a xlink:href="src/components/ui/card.tsx" xlink:title="card.tsx">
<path fill="#bbfeff" stroke="black" d="M491,-264C491,-264 449,-264 449,-264 446,-264 443,-261 443,-258 443,-258 443,-252 443,-252 443,-249 446,-246 449,-246 449,-246 491,-246 491,-246 494,-246 497,-249 497,-252 497,-252 497,-258 497,-258 497,-261 494,-264 491,-264"/>
<text text-anchor="start" x="451.5" y="-252.8" font-family="Helvetica,sans-Serif" font-size="9.00">card.tsx</text>
</a>
</g>
</g>
<!-- src/features/visualization/components/GraphOverlay.tsx&#45;&gt;src/components/ui/card.tsx -->
<g id="edge27" class="edge">
<title>src/features/visualization/components/GraphOverlay.tsx&#45;&gt;src/components/ui/card.tsx</title>
<path fill="none" stroke="#000000" stroke-width="2" stroke-opacity="0.200000" d="M342.93,-88.32C346.19,-116 359.72,-198.38 408,-240 416.01,-246.9 426.7,-250.73 436.9,-252.82"/>
<polygon fill="#000000" fill-opacity="0.200000" stroke="#000000" stroke-width="2" stroke-opacity="0.200000" points="436.55,-254.89 442.82,-253.86 437.27,-250.75 436.55,-254.89"/>
</g>
<!-- src/components/ui/label.tsx -->
<g id="node15" class="node">
<title>src/components/ui/label.tsx</title>
<g id="a_node15"><a xlink:href="src/components/ui/label.tsx" xlink:title="label.tsx">
<path fill="#bbfeff" stroke="black" d="M491,-324C491,-324 449,-324 449,-324 446,-324 443,-321 443,-318 443,-318 443,-312 443,-312 443,-309 446,-306 449,-306 449,-306 491,-306 491,-306 494,-306 497,-309 497,-312 497,-312 497,-318 497,-318 497,-321 494,-324 491,-324"/>
<text text-anchor="start" x="451" y="-312.8" font-family="Helvetica,sans-Serif" font-size="9.00">label.tsx</text>
</a>
</g>
</g>
<!-- src/features/visualization/components/GraphOverlay.tsx&#45;&gt;src/components/ui/label.tsx -->
<g id="edge28" class="edge">
<title>src/features/visualization/components/GraphOverlay.tsx&#45;&gt;src/components/ui/label.tsx</title>
<path fill="none" stroke="#000000" stroke-width="2" stroke-opacity="0.200000" d="M341.75,-88.18C341.37,-121.87 344.78,-239.81 408,-300 415.73,-307.35 426.45,-311.28 436.76,-313.32"/>
<polygon fill="#000000" fill-opacity="0.200000" stroke="#000000" stroke-width="2" stroke-opacity="0.200000" points="436.49,-315.4 442.75,-314.32 437.18,-311.26 436.49,-315.4"/>
</g>
<!-- src/components/ui/separator.tsx -->
<g id="node16" class="node">
<title>src/components/ui/separator.tsx</title>
<g id="a_node16"><a xlink:href="src/components/ui/separator.tsx" xlink:title="separator.tsx">
<path fill="#bbfeff" stroke="black" d="M501.5,-384C501.5,-384 438.5,-384 438.5,-384 435.5,-384 432.5,-381 432.5,-378 432.5,-378 432.5,-372 432.5,-372 432.5,-369 435.5,-366 438.5,-366 438.5,-366 501.5,-366 501.5,-366 504.5,-366 507.5,-369 507.5,-372 507.5,-372 507.5,-378 507.5,-378 507.5,-381 504.5,-384 501.5,-384"/>
<text text-anchor="start" x="440.5" y="-372.8" font-family="Helvetica,sans-Serif" font-size="9.00">separator.tsx</text>
</a>
</g>
</g>
<!-- src/features/visualization/components/GraphOverlay.tsx&#45;&gt;src/components/ui/separator.tsx -->
<g id="edge29" class="edge">
<title>src/features/visualization/components/GraphOverlay.tsx&#45;&gt;src/components/ui/separator.tsx</title>
<path fill="none" stroke="#000000" stroke-width="2" stroke-opacity="0.200000" d="M342.87,-88.01C347.23,-131.57 368.17,-319.75 408,-360 413.09,-365.15 419.65,-368.63 426.57,-370.97"/>
<polygon fill="#000000" fill-opacity="0.200000" stroke="#000000" stroke-width="2" stroke-opacity="0.200000" points="426.09,-373.02 432.44,-372.68 427.26,-368.99 426.09,-373.02"/>
</g>
<!-- src/components/ui/switch.tsx -->
<g id="node17" class="node">
<title>src/components/ui/switch.tsx</title>
<g id="a_node17"><a xlink:href="src/components/ui/switch.tsx" xlink:title="switch.tsx">
<path fill="#bbfeff" stroke="black" d="M495,-294C495,-294 445,-294 445,-294 442,-294 439,-291 439,-288 439,-288 439,-282 439,-282 439,-279 442,-276 445,-276 445,-276 495,-276 495,-276 498,-276 501,-279 501,-282 501,-282 501,-288 501,-288 501,-291 498,-294 495,-294"/>
<text text-anchor="start" x="447" y="-282.8" font-family="Helvetica,sans-Serif" font-size="9.00">switch.tsx</text>
</a>
</g>
</g>
<!-- src/features/visualization/components/GraphOverlay.tsx&#45;&gt;src/components/ui/switch.tsx -->
<g id="edge30" class="edge">
<title>src/features/visualization/components/GraphOverlay.tsx&#45;&gt;src/components/ui/switch.tsx</title>
<path fill="none" stroke="#000000" stroke-width="2" stroke-opacity="0.200000" d="M342.25,-88.22C343.6,-119 352.28,-219.16 408,-270 414.87,-276.27 423.94,-280.03 432.97,-282.25"/>
<polygon fill="#000000" fill-opacity="0.200000" stroke="#000000" stroke-width="2" stroke-opacity="0.200000" points="432.58,-284.31 438.88,-283.5 433.45,-280.2 432.58,-284.31"/>
</g>
<!-- src/features/visualization/components/GraphOverlay.tsx&#45;&gt;src/features/visualization/store.ts -->
<g id="edge25" class="edge">
<title>src/features/visualization/components/GraphOverlay.tsx&#45;&gt;src/features/visualization/store.ts</title>
<path fill="none" stroke="#000000" stroke-width="2" stroke-opacity="0.200000" d="M355.06,-88.09C367.97,-96.68 388.55,-109.37 408,-117 417.13,-120.58 427.4,-123.38 436.87,-125.5"/>
<polygon fill="#000000" fill-opacity="0.200000" stroke="#000000" stroke-width="2" stroke-opacity="0.200000" points="436.66,-127.6 442.97,-126.79 437.53,-123.49 436.66,-127.6"/>
</g>
<!-- src/features/visualization/logic/filters.ts -->
<g id="node22" class="node">
<title>src/features/visualization/logic/filters.ts</title>
<g id="a_node22"><a xlink:href="src/features/visualization/logic/filters.ts" xlink:title="filters.ts">
<path fill="#ddfeff" stroke="black" d="M731.5,-84C731.5,-84 689.5,-84 689.5,-84 686.5,-84 683.5,-81 683.5,-78 683.5,-78 683.5,-72 683.5,-72 683.5,-69 686.5,-66 689.5,-66 689.5,-66 731.5,-66 731.5,-66 734.5,-66 737.5,-69 737.5,-72 737.5,-72 737.5,-78 737.5,-78 737.5,-81 734.5,-84 731.5,-84"/>
<text text-anchor="start" x="692" y="-72.8" font-family="Helvetica,sans-Serif" font-size="9.00">filters.ts</text>
</a>
</g>
</g>
<!-- src/features/visualization/components/GraphOverlay.tsx&#45;&gt;src/features/visualization/logic/filters.ts -->
<g id="edge24" class="edge">
<title>src/features/visualization/components/GraphOverlay.tsx&#45;&gt;src/features/visualization/logic/filters.ts</title>
<path fill="none" stroke="#000000" stroke-opacity="0.200000" d="M387.58,-76.76C444.14,-73.8 533.94,-68.45 540,-64 547.72,-58.34 540.07,-49.37 548,-44 580.39,-22.07 597.67,-36.25 636,-44 654.21,-47.68 673.53,-56.02 687.78,-63.13"/>
<polygon fill="none" stroke="#000000" stroke-opacity="0.200000" points="686.88,-65.02 693.18,-65.87 688.79,-61.28 686.88,-65.02"/>
</g>
<!-- src/components/mode&#45;toggle.tsx&#45;&gt;src/components/ui/button.tsx -->
<g id="edge9" class="edge">
<title>src/components/mode&#45;toggle.tsx&#45;&gt;src/components/ui/button.tsx</title>
<path fill="none" stroke="#000000" stroke-width="2" stroke-opacity="0.200000" d="M386.06,-481.98C400.98,-478.93 417.49,-475.55 431.82,-472.61"/>
<polygon fill="#000000" fill-opacity="0.200000" stroke="#000000" stroke-width="2" stroke-opacity="0.200000" points="432.36,-474.65 437.81,-471.38 431.51,-470.53 432.36,-474.65"/>
</g>
<!-- src/components/theme&#45;provider.tsx -->
<g id="node9" class="node">
<title>src/components/theme&#45;provider.tsx</title>
<g id="a_node9"><a xlink:href="src/components/theme-provider.tsx" xlink:title="theme&#45;provider.tsx">
<path fill="#bbfeff" stroke="black" d="M515,-556C515,-556 425,-556 425,-556 422,-556 419,-553 419,-550 419,-550 419,-544 419,-544 419,-541 422,-538 425,-538 425,-538 515,-538 515,-538 518,-538 521,-541 521,-544 521,-544 521,-550 521,-550 521,-553 518,-556 515,-556"/>
<text text-anchor="start" x="427" y="-544.8" font-family="Helvetica,sans-Serif" font-size="9.00">theme&#45;provider.tsx</text>
</a>
</g>
</g>
<!-- src/components/mode&#45;toggle.tsx&#45;&gt;src/components/theme&#45;provider.tsx -->
<g id="edge8" class="edge">
<title>src/components/mode&#45;toggle.tsx&#45;&gt;src/components/theme&#45;provider.tsx</title>
<path fill="none" stroke="#000000" stroke-width="2" stroke-opacity="0.200000" d="M386.1,-495.44C391.23,-497.46 396.04,-500.23 400,-504 409.68,-513.22 398.34,-523.75 408,-533 409.67,-534.6 411.48,-536.02 413.4,-537.3"/>
<polygon fill="#000000" fill-opacity="0.200000" stroke="#000000" stroke-width="2" stroke-opacity="0.200000" points="412.46,-539.18 418.71,-540.34 414.54,-535.54 412.46,-539.18"/>
</g>
<!-- src/components/ui/dropdown&#45;menu.tsx -->
<g id="node10" class="node">
<title>src/components/ui/dropdown&#45;menu.tsx</title>
<g id="a_node10"><a xlink:href="src/components/ui/dropdown-menu.tsx" xlink:title="dropdown&#45;menu.tsx">
<path fill="#bbfeff" stroke="black" d="M518,-504C518,-504 422,-504 422,-504 419,-504 416,-501 416,-498 416,-498 416,-492 416,-492 416,-489 419,-486 422,-486 422,-486 518,-486 518,-486 521,-486 524,-489 524,-492 524,-492 524,-498 524,-498 524,-501 521,-504 518,-504"/>
<text text-anchor="start" x="424" y="-492.8" font-family="Helvetica,sans-Serif" font-size="9.00">dropdown&#45;menu.tsx</text>
</a>
</g>
</g>
<!-- src/components/mode&#45;toggle.tsx&#45;&gt;src/components/ui/dropdown&#45;menu.tsx -->
<g id="edge10" class="edge">
<title>src/components/mode&#45;toggle.tsx&#45;&gt;src/components/ui/dropdown&#45;menu.tsx</title>
<path fill="none" stroke="#000000" stroke-width="2" stroke-opacity="0.200000" d="M386.06,-492.39C393.71,-492.63 401.78,-492.88 409.76,-493.13"/>
<polygon fill="#000000" fill-opacity="0.200000" stroke="#000000" stroke-width="2" stroke-opacity="0.200000" points="409.77,-495.24 415.83,-493.33 409.9,-491.04 409.77,-495.24"/>
</g>
<!-- src/components/ui/button.tsx&#45;&gt;src/lib/utils.ts -->
<g id="edge12" class="edge">
<title>src/components/ui/button.tsx&#45;&gt;src/lib/utils.ts</title>
<path fill="none" stroke="#000000" stroke-width="2" stroke-opacity="0.200000" d="M502.26,-463.9C515.03,-462.09 529.27,-458.17 540,-450 569.92,-427.2 585.16,-383.42 591.42,-360.25"/>
<polygon fill="#000000" fill-opacity="0.200000" stroke="#000000" stroke-width="2" stroke-opacity="0.200000" points="593.49,-360.63 592.96,-354.29 589.42,-359.58 593.49,-360.63"/>
</g>
<!-- src/components/ui/sheet.tsx&#45;&gt;src/lib/utils.ts -->
<g id="edge18" class="edge">
<title>src/components/ui/sheet.tsx&#45;&gt;src/lib/utils.ts</title>
<path fill="none" stroke="#000000" stroke-width="2" stroke-opacity="0.200000" d="M499.3,-433.45C512.53,-431.62 527.97,-427.81 540,-420 562.91,-405.12 579.57,-377.14 588.22,-359.88"/>
<polygon fill="#000000" fill-opacity="0.200000" stroke="#000000" stroke-width="2" stroke-opacity="0.200000" points="590.32,-360.37 591.05,-354.05 586.54,-358.54 590.32,-360.37"/>
</g>
<!-- src/components/ui/dropdown&#45;menu.tsx&#45;&gt;src/lib/utils.ts -->
<g id="edge14" class="edge">
<title>src/components/ui/dropdown&#45;menu.tsx&#45;&gt;src/lib/utils.ts</title>
<path fill="none" stroke="#000000" stroke-width="2" stroke-opacity="0.200000" d="M524.02,-489.15C529.82,-486.92 535.31,-483.94 540,-480 577.13,-448.79 589.49,-388.66 593.36,-360.39"/>
<polygon fill="#000000" fill-opacity="0.200000" stroke="#000000" stroke-width="2" stroke-opacity="0.200000" points="595.47,-360.46 594.13,-354.24 591.3,-359.93 595.47,-360.46"/>
</g>
<!-- src/components/ui/badge.tsx -->
<g id="node11" class="node">
<title>src/components/ui/badge.tsx</title>
<g id="a_node11"><a xlink:href="src/components/ui/badge.tsx" xlink:title="badge.tsx">
<path fill="#bbfeff" stroke="black" d="M495,-414C495,-414 445,-414 445,-414 442,-414 439,-411 439,-408 439,-408 439,-402 439,-402 439,-399 442,-396 445,-396 445,-396 495,-396 495,-396 498,-396 501,-399 501,-402 501,-402 501,-408 501,-408 501,-411 498,-414 495,-414"/>
<text text-anchor="start" x="447" y="-402.8" font-family="Helvetica,sans-Serif" font-size="9.00">badge.tsx</text>
</a>
</g>
</g>
<!-- src/components/ui/badge.tsx&#45;&gt;src/lib/utils.ts -->
<g id="edge11" class="edge">
<title>src/components/ui/badge.tsx&#45;&gt;src/lib/utils.ts</title>
<path fill="none" stroke="#000000" stroke-width="2" stroke-opacity="0.200000" d="M501.22,-401.59C513.67,-399.39 527.97,-395.81 540,-390 556.19,-382.18 571.76,-368.69 582.18,-358.51"/>
<polygon fill="#000000" fill-opacity="0.200000" stroke="#000000" stroke-width="2" stroke-opacity="0.200000" points="583.83,-359.83 586.59,-354.1 580.86,-356.86 583.83,-359.83"/>
</g>
<!-- src/components/ui/card.tsx&#45;&gt;src/lib/utils.ts -->
<g id="edge13" class="edge">
<title>src/components/ui/card.tsx&#45;&gt;src/lib/utils.ts</title>
<path fill="none" stroke="#000000" stroke-width="2" stroke-opacity="0.200000" d="M497.28,-256.29C510.93,-258 527.35,-261.79 540,-270 562.91,-284.88 579.57,-312.86 588.22,-330.12"/>
<polygon fill="#000000" fill-opacity="0.200000" stroke="#000000" stroke-width="2" stroke-opacity="0.200000" points="586.54,-331.46 591.05,-335.95 590.32,-329.63 586.54,-331.46"/>
</g>
<!-- src/components/ui/input.tsx -->
<g id="node14" class="node">
<title>src/components/ui/input.tsx</title>
<g id="a_node14"><a xlink:href="src/components/ui/input.tsx" xlink:title="input.tsx">
<path fill="#bbfeff" stroke="black" d="M492.5,-354C492.5,-354 447.5,-354 447.5,-354 444.5,-354 441.5,-351 441.5,-348 441.5,-348 441.5,-342 441.5,-342 441.5,-339 444.5,-336 447.5,-336 447.5,-336 492.5,-336 492.5,-336 495.5,-336 498.5,-339 498.5,-342 498.5,-342 498.5,-348 498.5,-348 498.5,-351 495.5,-354 492.5,-354"/>
<text text-anchor="start" x="449.5" y="-342.8" font-family="Helvetica,sans-Serif" font-size="9.00">input.tsx</text>
</a>
</g>
</g>
<!-- src/components/ui/input.tsx&#45;&gt;src/lib/utils.ts -->
<g id="edge15" class="edge">
<title>src/components/ui/input.tsx&#45;&gt;src/lib/utils.ts</title>
<path fill="none" stroke="#000000" stroke-width="2" stroke-opacity="0.200000" d="M498.52,-345C517.53,-345 542.88,-345 562.83,-345"/>
<polygon fill="#000000" fill-opacity="0.200000" stroke="#000000" stroke-width="2" stroke-opacity="0.200000" points="562.83,-347.1 568.83,-345 562.83,-342.9 562.83,-347.1"/>
</g>
<!-- src/components/ui/label.tsx&#45;&gt;src/lib/utils.ts -->
<g id="edge16" class="edge">
<title>src/components/ui/label.tsx&#45;&gt;src/lib/utils.ts</title>
<path fill="none" stroke="#000000" stroke-width="2" stroke-opacity="0.200000" d="M497.29,-320.38C510.19,-323.1 525.95,-326.56 540,-330 547.36,-331.8 555.24,-333.87 562.66,-335.88"/>
<polygon fill="#000000" fill-opacity="0.200000" stroke="#000000" stroke-width="2" stroke-opacity="0.200000" points="562.43,-337.99 568.78,-337.55 563.54,-333.94 562.43,-337.99"/>
</g>
<!-- src/components/ui/separator.tsx&#45;&gt;src/lib/utils.ts -->
<g id="edge17" class="edge">
<title>src/components/ui/separator.tsx&#45;&gt;src/lib/utils.ts</title>
<path fill="none" stroke="#000000" stroke-width="2" stroke-opacity="0.200000" d="M507.61,-367.41C518.09,-365.14 529.52,-362.57 540,-360 547.36,-358.2 555.24,-356.13 562.66,-354.12"/>
<polygon fill="#000000" fill-opacity="0.200000" stroke="#000000" stroke-width="2" stroke-opacity="0.200000" points="563.54,-356.06 568.78,-352.45 562.43,-352.01 563.54,-356.06"/>
</g>
<!-- src/components/ui/switch.tsx&#45;&gt;src/lib/utils.ts -->
<g id="edge19" class="edge">
<title>src/components/ui/switch.tsx&#45;&gt;src/lib/utils.ts</title>
<path fill="none" stroke="#000000" stroke-width="2" stroke-opacity="0.200000" d="M501.22,-288.41C513.67,-290.61 527.97,-294.19 540,-300 556.19,-307.82 571.76,-321.31 582.18,-331.49"/>
<polygon fill="#000000" fill-opacity="0.200000" stroke="#000000" stroke-width="2" stroke-opacity="0.200000" points="580.86,-333.14 586.59,-335.9 583.83,-330.17 580.86,-333.14"/>
</g>
<!-- src/components/ui/tooltip.tsx -->
<g id="node18" class="node">
<title>src/components/ui/tooltip.tsx</title>
<g id="a_node18"><a xlink:href="src/components/ui/tooltip.tsx" xlink:title="tooltip.tsx">
<path fill="#bbfeff" stroke="black" d="M495,-234C495,-234 445,-234 445,-234 442,-234 439,-231 439,-228 439,-228 439,-222 439,-222 439,-219 442,-216 445,-216 445,-216 495,-216 495,-216 498,-216 501,-219 501,-222 501,-222 501,-228 501,-228 501,-231 498,-234 495,-234"/>
<text text-anchor="start" x="447" y="-222.8" font-family="Helvetica,sans-Serif" font-size="9.00">tooltip.tsx</text>
</a>
</g>
</g>
<!-- src/components/ui/tooltip.tsx&#45;&gt;src/lib/utils.ts -->
<g id="edge20" class="edge">
<title>src/components/ui/tooltip.tsx&#45;&gt;src/lib/utils.ts</title>
<path fill="none" stroke="#000000" stroke-width="2" stroke-opacity="0.200000" d="M501.22,-225.95C514.25,-227.7 528.98,-231.6 540,-240 569.92,-262.8 585.16,-306.58 591.42,-329.75"/>
<polygon fill="#000000" fill-opacity="0.200000" stroke="#000000" stroke-width="2" stroke-opacity="0.200000" points="589.42,-330.42 592.96,-335.71 593.49,-329.37 589.42,-330.42"/>
</g>
<!-- src/features/visualization/store.ts&#45;&gt;src/schema/dependency&#45;cruiser.ts -->
<g id="edge34" class="edge">
<title>src/features/visualization/store.ts&#45;&gt;src/schema/dependency&#45;cruiser.ts</title>
<path fill="none" stroke="#000000" stroke-opacity="0.200000" d="M497.23,-135.88C537.17,-143.49 611.18,-158.44 636,-169 657.23,-178.04 679.06,-193.17 693.35,-204.04"/>
<polygon fill="none" stroke="#000000" stroke-opacity="0.200000" points="692.23,-205.82 698.26,-207.82 694.79,-202.5 692.23,-205.82"/>
</g>
<!-- src/features/visualization/store.ts&#45;&gt;src/features/visualization/logic/filters.ts -->
<g id="edge35" class="edge">
<title>src/features/visualization/store.ts&#45;&gt;src/features/visualization/logic/filters.ts</title>
<path fill="none" stroke="#000000" stroke-opacity="0.200000" d="M497.12,-132.56C511.76,-131.95 529.19,-128.48 540,-117 557.53,-98.37 528.69,-76.78 548,-60 566.68,-43.75 635.9,-56.91 677.42,-66.73"/>
<polygon fill="none" stroke="#000000" stroke-opacity="0.200000" points="677.01,-68.79 683.33,-68.15 677.99,-64.71 677.01,-68.79"/>
</g>
<!-- src/features/visualization/logic/layout.ts -->
<g id="node23" class="node">
<title>src/features/visualization/logic/layout.ts</title>
<g id="a_node23"><a xlink:href="src/features/visualization/logic/layout.ts" xlink:title="layout.ts">
<path fill="#ddfeff" stroke="black" d="M618,-84C618,-84 574,-84 574,-84 571,-84 568,-81 568,-78 568,-78 568,-72 568,-72 568,-69 571,-66 574,-66 574,-66 618,-66 618,-66 621,-66 624,-69 624,-72 624,-72 624,-78 624,-78 624,-81 621,-84 618,-84"/>
<text text-anchor="start" x="576" y="-72.8" font-family="Helvetica,sans-Serif" font-size="9.00">layout.ts</text>
</a>
</g>
</g>
<!-- src/features/visualization/store.ts&#45;&gt;src/features/visualization/logic/layout.ts -->
<g id="edge36" class="edge">
<title>src/features/visualization/store.ts&#45;&gt;src/features/visualization/logic/layout.ts</title>
<path fill="none" stroke="#000000" stroke-width="2" stroke-opacity="0.200000" d="M497.18,-131.9C511.48,-131.01 528.55,-127.48 540,-117 549.23,-108.55 539.24,-98.94 548,-90 551.87,-86.05 556.79,-83.13 561.97,-80.98"/>
<polygon fill="#000000" fill-opacity="0.200000" stroke="#000000" stroke-width="2" stroke-opacity="0.200000" points="562.72,-82.95 567.66,-78.94 561.3,-78.99 562.72,-82.95"/>
</g>
<!-- src/features/visualization/logic/transformer.ts -->
<g id="node24" class="node">
<title>src/features/visualization/logic/transformer.ts</title>
<g id="a_node24"><a xlink:href="src/features/visualization/logic/transformer.ts" xlink:title="transformer.ts">
<path fill="#ddfeff" stroke="black" d="M630,-114C630,-114 562,-114 562,-114 559,-114 556,-111 556,-108 556,-108 556,-102 556,-102 556,-99 559,-96 562,-96 562,-96 630,-96 630,-96 633,-96 636,-99 636,-102 636,-102 636,-108 636,-108 636,-111 633,-114 630,-114"/>
<text text-anchor="start" x="564" y="-102.8" font-family="Helvetica,sans-Serif" font-size="9.00">transformer.ts</text>
</a>
</g>
</g>
<!-- src/features/visualization/store.ts&#45;&gt;src/features/visualization/logic/transformer.ts -->
<g id="edge37" class="edge">
<title>src/features/visualization/store.ts&#45;&gt;src/features/visualization/logic/transformer.ts</title>
<path fill="none" stroke="#000000" stroke-width="2" stroke-opacity="0.200000" d="M497.23,-125.77C510.12,-123.18 525.89,-119.97 540,-117 543.23,-116.32 546.56,-115.61 549.91,-114.89"/>
<polygon fill="#000000" fill-opacity="0.200000" stroke="#000000" stroke-width="2" stroke-opacity="0.200000" points="550.53,-116.91 555.96,-113.59 549.65,-112.8 550.53,-116.91"/>
</g>
<!-- src/features/visualization/logic/transformer.ts&#45;&gt;src/schema/dependency&#45;cruiser.ts -->
<g id="edge32" class="edge">
<title>src/features/visualization/logic/transformer.ts&#45;&gt;src/schema/dependency&#45;cruiser.ts</title>
<path fill="none" stroke="#000000" stroke-opacity="0.200000" d="M631.36,-114.18C633.03,-115.31 634.6,-116.58 636,-118 644.2,-126.3 638.23,-132.86 644,-143 657.56,-166.85 679.74,-189.78 694.48,-203.63"/>
<polygon fill="none" stroke="#000000" stroke-opacity="0.200000" points="693.34,-205.44 699.17,-207.97 696.19,-202.35 693.34,-205.44"/>
</g>
<!-- src/features/visualization/logic/transformer.ts&#45;&gt;src/features/visualization/logic/filters.ts -->
<g id="edge33" class="edge">
<title>src/features/visualization/logic/transformer.ts&#45;&gt;src/features/visualization/logic/filters.ts</title>
<path fill="none" stroke="#000000" stroke-width="2" stroke-opacity="0.200000" d="M630.75,-96C645.48,-92.07 662.66,-87.49 677.22,-83.61"/>
<polygon fill="#000000" fill-opacity="0.200000" stroke="#000000" stroke-width="2" stroke-opacity="0.200000" points="678.02,-85.57 683.28,-81.99 676.94,-81.51 678.02,-85.57"/>
</g>
<!-- src/index.css -->
<g id="node25" class="node">
<title>src/index.css</title>
<g id="a_node25"><a xlink:href="src/index.css" xlink:title="index.css">
<path fill="#ffffcc" stroke="black" d="M147,-622C147,-622 100,-622 100,-622 97,-622 94,-619 94,-616 94,-616 94,-610 94,-610 94,-607 97,-604 100,-604 100,-604 147,-604 147,-604 150,-604 153,-607 153,-610 153,-610 153,-616 153,-616 153,-619 150,-622 147,-622"/>
<text text-anchor="start" x="102" y="-610.8" font-family="Helvetica,sans-Serif" font-size="9.00">index.css</text>
</a>
</g>
</g>
<!-- src/main.tsx -->
<g id="node26" class="node">
<title>src/main.tsx</title>
<g id="a_node26"><a xlink:href="src/main.tsx" xlink:title="main.tsx">
<path fill="#bbfeff" stroke="black" d="M73,-562C73,-562 29,-562 29,-562 26,-562 23,-559 23,-556 23,-556 23,-550 23,-550 23,-547 26,-544 29,-544 29,-544 73,-544 73,-544 76,-544 79,-547 79,-550 79,-550 79,-556 79,-556 79,-559 76,-562 73,-562"/>
<text text-anchor="start" x="31" y="-550.8" font-family="Helvetica,sans-Serif" font-size="9.00">main.tsx</text>
</a>
</g>
</g>
<!-- src/main.tsx&#45;&gt;src/App.tsx -->
<g id="edge38" class="edge">
<title>src/main.tsx&#45;&gt;src/App.tsx</title>
<path fill="none" stroke="#000000" stroke-width="2" stroke-opacity="0.200000" d="M54.68,-543.85C65.34,-507.39 104.87,-372.28 118.13,-326.94"/>
<polygon fill="#000000" fill-opacity="0.200000" stroke="#000000" stroke-width="2" stroke-opacity="0.200000" points="120.15,-327.51 119.82,-321.16 116.12,-326.33 120.15,-327.51"/>
</g>
<!-- src/main.tsx&#45;&gt;src/components/theme&#45;provider.tsx -->
<g id="edge40" class="edge">
<title>src/main.tsx&#45;&gt;src/components/theme&#45;provider.tsx</title>
<path fill="none" stroke="#000000" stroke-width="2" stroke-opacity="0.200000" d="M74.69,-562.07C112.12,-576.5 189.53,-604.07 258,-614 320.46,-623.05 341.52,-637.72 400,-614 426.13,-603.4 447.82,-577.62 459.55,-561.31"/>
<polygon fill="#000000" fill-opacity="0.200000" stroke="#000000" stroke-width="2" stroke-opacity="0.200000" points="461.42,-562.29 463.14,-556.17 457.98,-559.89 461.42,-562.29"/>
</g>
<!-- src/main.tsx&#45;&gt;src/index.css -->
<g id="edge39" class="edge">
<title>src/main.tsx&#45;&gt;src/index.css</title>
<path fill="none" stroke="#000000" stroke-width="2" stroke-opacity="0.200000" d="M79.15,-561.39C81.69,-562.96 84.04,-564.81 86,-567 94.62,-576.65 86.24,-584.64 94,-595 95.38,-596.84 97.01,-598.54 98.77,-600.1"/>
<polygon fill="#000000" fill-opacity="0.200000" stroke="#000000" stroke-width="2" stroke-opacity="0.200000" points="97.67,-601.9 103.7,-603.9 100.23,-598.57 97.67,-601.9"/>
</g>
<!-- src/test/setup.ts -->
<g id="node27" class="node">
<title>src/test/setup.ts</title>
<g id="a_node27"><a xlink:href="src/test/setup.ts" xlink:title="no&#45;orphans">
<path fill="#ccffcc" stroke="blue" d="M72,-596C72,-596 30,-596 30,-596 27,-596 24,-593 24,-590 24,-590 24,-584 24,-584 24,-581 27,-578 30,-578 30,-578 72,-578 72,-578 75,-578 78,-581 78,-584 78,-584 78,-590 78,-590 78,-593 75,-596 72,-596"/>
<text text-anchor="start" x="32.5" y="-584.8" font-family="Helvetica,sans-Serif" font-size="9.00" fill="blue">setup.ts</text>
</a>
</g>
</g>
</g>
</svg>
